<svg style="height: 512px; width: 512px;" xmlns="http://www.w3.org/2000/svg" viewBox="0 0 512 512"><g class="" style="" transform="translate(0,0)"><g><path d="M287.586 15.297L291.09 126.26L322.627 15.297L287.587 15.297Z" class="" fill="#f8e71c" fill-opacity="1" stroke="#000000" stroke-opacity="1" stroke-width="8"></path><path d="M191.806 15.535L190.056 251.582L19.523 208.252L130.486 377.69L41.716 372.516L156.148 484.873L111.682 409.006L186.896 417L135.148 307.06L245.262 387.016L232.627 201.786L232.629 201.789L307.841 372.359L383.657 282.409L377.037 436.991L437.21 397.013L416.822 476.499L492.578 333.712L416.654 335.652L487.32 155.87L355.918 228.95L343.654 89.26L278.244 229.596L191.809 15.536L191.806 15.536Z" class="selected" fill="#f5a623" fill-opacity="1" stroke="#000000" stroke-opacity="1" stroke-width="8"></path><path d="M45.503 44.095L39.355 75.94L154.285 218L154.287 218L76.687 51.164L45.502 44.094Z" class="" fill="#f8e71c" fill-opacity="1" stroke="#000000" stroke-opacity="1" stroke-width="8"></path><path d="M467.773 68.871L436.589 75.941L392.851 183.311L473.919 100.721L467.772 68.871Z" class="" fill="#f8e71c" fill-opacity="1" stroke="#000000" stroke-opacity="1" stroke-width="8"></path><path d="M279.208 403.61C239.032 403.61 206.5 436.147 206.5 476.32C206.5 482.045 207.136 487.026 208.387 492.37C215.637 459.825 244.484 435.715 279.207 435.715C314.027 435.715 342.88 459.685 350.027 492.371C351.245 487.094 351.915 481.967 351.915 476.321C351.915 436.146 319.379 403.611 279.205 403.611Z" class="" fill="#000000" fill-opacity="0.5" stroke="#000000" stroke-opacity="1" stroke-width="8"></path></g></g></svg>