<svg style="height: 512px; width: 512px;" xmlns="http://www.w3.org/2000/svg" viewBox="0 0 512 512"><g class="" style="" transform="translate(0,-130)"><g><path d="M223.688 25.72L244.906 192.5L275.656 192.5L296.876 25.72L223.688 25.72Z" class="" fill="#9b9b9b" fill-opacity="0"></path><path d="M243.156 209.813L243.156 244.063L277.406 244.063L277.406 209.813L243.156 209.813Z" class="" fill="#9b9b9b" fill-opacity="0"></path><path d="M260.312 289.781C258.87 289.781 257.428 289.821 256 289.845C254.774 289.865 253.56 289.902 252.344 289.939L251.281 289.969C249.981 290.014 248.694 290.062 247.407 290.126C246.204 290.186 245.004 290.236 243.813 290.314C243.596 290.326 243.375 290.331 243.157 290.344C203.677 292.774 168.189 303.298 141.937 316.282C126.937 323.702 114.967 331.959 107.157 339.532C99.349 347.108 96.377 353.885 96.377 356.846C96.377 359.806 98.605 364.153 106.063 369.44C113.523 374.726 125.416 380.115 140.47 384.627C170.576 393.652 213.216 399.471 260.313 399.471C307.409 399.471 350.08 393.651 380.188 384.626C395.241 380.114 407.135 374.726 414.594 369.438C422.054 364.152 424.281 359.805 424.281 356.845C424.281 353.885 421.309 347.107 413.501 339.532C405.693 331.959 393.721 323.702 378.721 316.282C352.471 303.299 316.957 292.775 277.471 290.346C277.251 290.331 277.034 290.329 276.813 290.316C275.623 290.238 274.423 290.186 273.22 290.126C271.932 290.063 270.644 290.016 269.344 289.971C269.208 289.965 269.074 289.943 268.938 289.938C268.708 289.931 268.48 289.945 268.25 289.938C267.055 289.903 265.862 289.864 264.656 289.845C263.218 289.821 261.766 289.782 260.312 289.782Z" class="" fill="#9b9b9b" fill-opacity="1" stroke="#050000" stroke-opacity="1" stroke-width="8"></path><path d="M260.312 308.471C286.702 308.471 310.567 312.881 327 319.501C335.216 322.811 341.52 326.703 345.313 330.314C349.103 333.924 350.219 336.709 350.219 339.094C350.219 341.48 349.103 344.266 345.311 347.876C343.731 349.382 341.691 350.929 339.281 352.47C334.328 336.664 300.859 324.437 260.281 324.437C219.726 324.437 186.295 336.647 181.311 352.437C178.915 350.904 176.885 349.373 175.311 347.875C171.521 344.265 170.405 341.479 170.405 339.095C170.405 336.708 171.52 333.923 175.311 330.312C179.103 326.702 185.408 322.81 193.624 319.5C210.057 312.88 233.921 308.47 260.312 308.47Z" class="selected" fill="#4a4a4a" fill-opacity="1" stroke="#050000" stroke-opacity="1" stroke-width="8"></path><path d="M77.75 358.25C55.655 371.96 42.812 388.312 42.812 405.875C42.812 454.252 140.179 493.469 260.282 493.469C380.382 493.469 477.75 454.251 477.75 405.874C477.75 388.334 464.943 372.01 442.906 358.311C442.296 369.033 435.05 377.851 425.406 384.686C415.326 391.83 401.836 397.642 385.531 402.53C352.921 412.307 308.924 418.156 260.314 418.156C211.704 418.156 167.707 412.306 135.094 402.531C118.789 397.644 105.33 391.831 95.251 384.689C85.589 377.841 78.336 368.999 77.751 358.251Z" class="" fill="#9b9b9b" fill-opacity="1" stroke="#050000" stroke-opacity="1" stroke-width="8"></path></g></g></svg>